<?xml version="1.0" encoding="UTF-8"?>
<svg width="178px" height="70px" viewBox="0 0 178 70" version="1.1" xmlns="http://www.w3.org/2000/svg" xmlns:xlink="http://www.w3.org/1999/xlink">
    <!-- Generator: Sketch 56.1 (81669) - https://sketch.com -->
    <title>future_visual_logo_white</title>
    <desc>Created with Sketch.</desc>
    <defs>
        <polygon id="path-1" points="0 70 177.943 70 177.943 0 0 0"></polygon>
    </defs>
    <g id="future_visual_logo_white" stroke="none" stroke-width="1" fill="none" fill-rule="evenodd">
        <g id="Logo---New">
            <path d="M0,17.4998 L0,52.4998 L30.311,69.9998 L60.621,52.4998 L60.621,17.5008 L30.311,0.0008 L0,17.4998 Z M5.189,49.5048 L5.189,20.4958 L30.311,5.9918 L55.433,20.4958 L55.433,49.5048 L30.311,64.0088 L5.189,49.5048 Z" id="Fill-1" fill="#EB0F0F"></path>
            <polygon id="Fill-2" fill="#EB0F0F" points="42.3774 23.687 38.6694 36.44 34.9624 23.687 28.0134 23.687 27.8194 23.687 14.3094 23.687 14.3094 46.402 20.6884 46.402 20.6884 38.971 29.5704 38.971 27.5724 33.065 20.6884 33.065 20.6884 30.177 30.0164 30.177 35.5624 46.564 41.6684 46.564 49.4104 23.687"></polygon>
            <polygon id="Fill-3" fill="#FFFFFF" points="87.9458 15.3051 76.5788 15.3051 76.5788 22.0071 86.7388 22.0071 86.7388 23.9381 76.5788 23.9381 76.5788 32.1151 74.4608 32.1151 74.4608 13.3481 87.9458 13.3481"></polygon>
            <g id="Group-22">
                <path d="M106.5347,24.0991 C106.5347,29.5681 103.3977,32.4101 98.7067,32.4101 C94.0677,32.4101 90.9047,29.5681 90.9047,24.2591 L90.9047,13.3481 L93.0227,13.3481 L93.0227,24.1251 C93.0227,28.1731 95.1677,30.4531 98.7607,30.4531 C102.2187,30.4531 104.4167,28.3621 104.4167,24.2591 L104.4167,13.3481 L106.5347,13.3481 L106.5347,24.0991 Z" id="Fill-4" fill="#FFFFFF"></path>
                <polygon id="Fill-6" fill="#FFFFFF" points="117.8706 32.1147 115.7256 32.1147 115.7256 15.3047 109.4256 15.3047 109.4256 13.3477 124.1706 13.3477 124.1706 15.3047 117.8706 15.3047"></polygon>
                <path d="M142.6919,24.0991 C142.6919,29.5681 139.5549,32.4101 134.8639,32.4101 C130.2249,32.4101 127.0619,29.5681 127.0619,24.2591 L127.0619,13.3481 L129.1799,13.3481 L129.1799,24.1251 C129.1799,28.1731 131.3249,30.4531 134.9179,30.4531 C138.3759,30.4531 140.5739,28.3621 140.5739,24.2591 L140.5739,13.3481 L142.6919,13.3481 L142.6919,24.0991 Z" id="Fill-8" fill="#FFFFFF"></path>
                <path d="M153.7632,15.3051 L147.9722,15.3051 L147.9722,22.9191 L153.7362,22.9191 C156.5512,22.9191 158.5622,21.4711 158.5622,19.0321 C158.5622,16.6991 156.7922,15.3051 153.7632,15.3051 L153.7632,15.3051 Z M158.7762,32.1151 L153.3332,24.8231 L147.9722,24.8231 L147.9722,32.1151 L145.8542,32.1151 L145.8542,13.3481 L153.9232,13.3481 C158.0522,13.3481 160.7062,15.5731 160.7062,18.9511 C160.7062,22.0881 158.5622,23.9101 155.6132,24.4471 L161.3762,32.1151 L158.7762,32.1151 Z" id="Fill-10" fill="#FFFFFF"></path>
                <polygon id="Fill-12" fill="#FFFFFF" points="177.4604 15.2778 166.0134 15.2778 166.0134 21.6858 176.2544 21.6858 176.2544 23.6158 166.0134 23.6158 166.0134 30.1838 177.5944 30.1838 177.5944 32.1148 163.8954 32.1148 163.8954 13.3478 177.4604 13.3478"></polygon>
                <polygon id="Fill-14" fill="#FFFFFF" points="75.1997 36.6792 81.0167 36.6792 85.2797 48.5562 89.5427 36.6792 95.2537 36.6792 87.6387 55.5792 82.8127 55.5792"></polygon>
                <mask id="mask-2" fill="white">
                    <use xlink:href="#path-1"></use>
                </mask>
                <g id="Clip-17"></g>
                <polygon id="Fill-16" fill="#FFFFFF" mask="url(#mask-2)" points="97.13 55.446 102.358 55.446 102.358 36.679 97.13 36.679"></polygon>
                <path d="M104.5747,52.6577 L107.4707,49.1987 C109.3197,50.6737 111.3847,51.4507 113.5557,51.4507 C114.9497,51.4507 115.7007,50.9687 115.7007,50.1647 L115.7007,50.1107 C115.7007,49.3337 115.0847,48.9037 112.5377,48.3137 C108.5427,47.4027 105.4597,46.2767 105.4597,42.4167 L105.4597,42.3627 C105.4597,38.8777 108.2207,36.3567 112.7247,36.3567 C115.9157,36.3567 118.4087,37.2157 120.4457,38.8507 L117.8457,42.5237 C116.1297,41.3167 114.2537,40.6737 112.5917,40.6737 C111.3307,40.6737 110.7147,41.2097 110.7147,41.8807 L110.7147,41.9337 C110.7147,42.7917 111.3577,43.1667 113.9587,43.7567 C118.2747,44.6947 120.9557,46.0897 120.9557,49.6007 L120.9557,49.6547 C120.9557,53.4887 117.9267,55.7667 113.3687,55.7667 C110.0447,55.7667 106.8807,54.7217 104.5747,52.6577" id="Fill-18" fill="#FFFFFF" mask="url(#mask-2)"></path>
                <path d="M123.356,47.2153 L123.356,36.6793 L128.637,36.6793 L128.637,47.1083 C128.637,49.8163 130.004,51.1033 132.096,51.1033 C134.187,51.1033 135.554,49.8693 135.554,47.2413 L135.554,36.6793 L140.835,36.6793 L140.835,47.0813 C140.835,53.1403 137.377,55.7943 132.043,55.7943 C126.708,55.7943 123.356,53.0863 123.356,47.2153" id="Fill-19" fill="#FFFFFF" mask="url(#mask-2)"></path>
                <path d="M153.3813,48.0463 L151.2893,42.7113 L149.1723,48.0463 L153.3813,48.0463 Z M148.8233,36.5453 L153.8363,36.5453 L161.8263,55.4453 L156.2493,55.4453 L154.8823,52.0943 L147.6443,52.0943 L146.3033,55.4453 L140.8343,55.4453 L148.8233,36.5453 Z" id="Fill-20" fill="#FFFFFF" mask="url(#mask-2)"></path>
                <polygon id="Fill-21" fill="#FFFFFF" mask="url(#mask-2)" points="163.6528 36.6792 168.8538 36.6792 168.8538 50.8882 177.9428 50.8882 177.9428 55.4462 163.6528 55.4462"></polygon>
            </g>
        </g>
    </g>
</svg>