<svg xmlns="http://www.w3.org/2000/svg" viewBox="0 0 176.33 159.18"><defs><style>.cls-1{fill:#b946f9;}.cls-2{fill:#7737ff;}.cls-3{fill:#8f4ee8;}.cls-4,.cls-5,.cls-6{fill:none;stroke:#eb0f0f;stroke-miterlimit:10;stroke-width:2px;}.cls-5{stroke-dasharray:5.87 3.92;}.cls-6{stroke-dasharray:4 4;}</style></defs><title>Platformv2</title><g id="Layer_2" data-name="Layer 2"><g id="Layer_1-2" data-name="Layer 1"><polygon class="cls-1" points="20.46 16.74 0 28.55 20.46 40.37 40.92 28.55 20.46 16.74"/><polygon class="cls-2" points="40.92 28.55 20.46 40.37 20.46 64.94 40.92 53.13 40.92 28.55"/><polygon class="cls-3" points="0 28.55 20.46 40.37 20.46 64.94 0 53.13 0 28.55"/><polyline class="cls-4" points="22.82 38.87 20.22 40.37 20.22 43.37"/><line class="cls-5" x1="20.22" y1="47.29" x2="20.22" y2="113.85"/><polyline class="cls-4" points="20.22 115.81 20.22 118.81 22.82 120.31"/><line class="cls-5" x1="26.21" y1="122.26" x2="83.85" y2="155.55"/><polyline class="cls-4" points="85.55 156.52 88.15 158.02 90.74 156.52"/><line class="cls-5" x1="94.13" y1="154.57" x2="151.78" y2="121.29"/><polyline class="cls-4" points="153.47 120.31 156.07 118.81 156.07 115.81"/><line class="cls-5" x1="156.07" y1="111.89" x2="156.07" y2="45.33"/><polyline class="cls-4" points="156.07 43.37 156.07 40.37 153.47 38.87"/><line class="cls-5" x1="150.08" y1="36.91" x2="92.44" y2="3.63"/><polyline class="cls-4" points="90.74 2.65 88.15 1.16 85.55 2.65"/><line class="cls-5" x1="82.16" y1="4.61" x2="24.51" y2="37.89"/><line class="cls-6" x1="88.15" y1="5.94" x2="88.15" y2="155.98"/><line class="cls-6" x1="24.23" y1="42.08" x2="152.06" y2="117.1"/><line class="cls-6" x1="152.06" y1="42.08" x2="24.23" y2="117.1"/><polygon class="cls-1" points="155.87 95.35 135.41 107.16 155.87 118.97 176.33 107.16 155.87 95.35"/><polygon class="cls-2" points="176.33 107.16 155.87 118.97 155.87 143.54 176.33 131.73 176.33 107.16"/><polygon class="cls-3" points="135.41 107.16 155.87 118.97 155.87 143.54 135.41 131.73 135.41 107.16"/></g></g></svg>