<?xml version="1.0" encoding="utf-8"?>
<!-- Generator: Adobe Illustrator 23.0.6, SVG Export Plug-In . SVG Version: 6.00 Build 0)  -->
<svg version="1.1" id="plus" xmlns="http://www.w3.org/2000/svg" xmlns:xlink="http://www.w3.org/1999/xlink" x="0px" y="0px"
	 viewBox="0 0 132.4 152.8" style="enable-background:new 0 0 132.4 152.8;" xml:space="preserve">
<style type="text/css">
	.st0{fill:none;stroke:#EB0F0F;stroke-width:2;stroke-miterlimit:10;}
	.st1{fill:none;stroke:#EB0F0F;stroke-width:2;stroke-miterlimit:10;stroke-dasharray:5.62,3.74;}
	.st2{fill:none;stroke:#EB0F0F;stroke-width:2;stroke-miterlimit:10;stroke-dasharray:4,4;}
	.st3{clip-path:url(#SVGID_2_);}
	.st4{fill:#B946F9;}
	.st5{fill:#7737FF;}
	.st6{fill:#8F4EE8;}
</style>
<polyline class="st0" points="3.6,37.3 1,38.8 1,41.8 "/>
<line class="st1" x1="1" y1="45.5" x2="1" y2="109.2"/>
<polyline class="st0" points="1,111 1,114 3.6,115.5 "/>
<line class="st1" x1="6.8" y1="117.4" x2="62" y2="149.2"/>
<polyline class="st0" points="63.6,150.2 66.2,151.7 68.8,150.2 "/>
<line class="st1" x1="72" y1="148.3" x2="127.1" y2="116.5"/>
<polyline class="st0" points="128.8,115.5 131.4,114 131.4,111 "/>
<line class="st1" x1="131.4" y1="107.3" x2="131.4" y2="43.7"/>
<polyline class="st0" points="131.4,41.8 131.4,38.8 128.8,37.3 "/>
<line class="st1" x1="125.5" y1="35.4" x2="70.4" y2="3.6"/>
<polyline class="st0" points="68.8,2.7 66.2,1.2 63.6,2.7 "/>
<line class="st1" x1="60.3" y1="4.5" x2="5.2" y2="36.4"/>
<line class="st2" x1="66.2" y1="3.9" x2="66.2" y2="94.9"/>
<line class="st2" x1="61.5" y1="73.5" x2="128.8" y2="112.4"/>
<polyline class="st2" points="70.7,73.7 66.2,76.3 3.5,112.4 "/>
<g>
	<defs>
		<rect id="SVGID_1_" x="5.1" y="16.4" width="122.4" height="120.5"/>
	</defs>
	<clipPath id="SVGID_2_">
		<use xlink:href="#SVGID_1_"  style="overflow:visible;"/>
	</clipPath>
	<g class="st3">
		<polygon class="st4" points="66.4,32.9 28.6,54.4 66.4,75.8 104.1,54.4 		"/>
		<polygon class="st5" points="104.1,54.4 66.4,75.8 66.4,120.5 104.1,99 		"/>
		<polygon class="st6" points="28.6,54.4 66.4,75.8 66.4,120.5 28.6,99 		"/>
	</g>
</g>
<line class="st2" x1="66.2" y1="77.5" x2="66.2" y2="148.6"/>
<line class="st2" x1="128.8" y1="40.1" x2="66.2" y2="76.2"/>
<line class="st2" x1="3.5" y1="40.1" x2="66.2" y2="76.3"/>
</svg>
