<?xml version="1.0" encoding="UTF-8"?>
<svg width="187px" height="85px" viewBox="0 0 187 85" version="1.1" xmlns="http://www.w3.org/2000/svg" xmlns:xlink="http://www.w3.org/1999/xlink">
    <!-- Generator: Sketch 56.1 (81669) - https://sketch.com -->
    <title>Squares</title>
    <desc>Created with Sketch.</desc>
    <g id="VISIONxR" stroke="none" stroke-width="1" fill="none" fill-rule="evenodd">
        <g id="VISIONxR-Test" transform="translate(-867.000000, -2419.000000)" stroke-width="2">
            <g id="CONTACT" transform="translate(1.000000, 2296.000000)">
                <g id="Squares" transform="translate(867.000000, 124.000000)">
                    <g id="Group-4" transform="translate(0.413800, 0.413800)" stroke="#B946F9">
                        <polyline id="Stroke-1" points="43.8412 79.1962 41.0122 82.0252 38.1842 79.1962"></polyline>
                        <path d="M35.4648,76.4764 L4.1888,45.2014" id="Stroke-3" stroke-dasharray="7.692,3.846"></path>
                        <polyline id="Stroke-4" points="2.829 43.8412 -2.46469511e-14 41.0122 2.829 38.1842"></polyline>
                        <path d="M5.5488,35.4647 L36.8238,4.1887" id="Stroke-6" stroke-dasharray="7.692,3.846"></path>
                        <polyline id="Stroke-7" points="38.184 2.829 41.013 -2.48912002e-13 43.841 2.829"></polyline>
                        <path d="M46.5605,5.5487 L77.8365,36.8237" id="Stroke-9" stroke-dasharray="7.692,3.846"></path>
                        <polyline id="Stroke-10" points="79.1962 38.184 82.0252 41.013 79.1962 43.841"></polyline>
                        <path d="M76.4765,46.5604 L45.2015,77.8364" id="Stroke-11" stroke-dasharray="7.692,3.846"></path>
                    </g>
                    <g id="Group" transform="translate(102.413800, 0.413800)" stroke="#7737FF">
                        <polyline id="Stroke-22" points="43.8412 79.1962 41.0122 82.0252 38.1842 79.1962"></polyline>
                        <path d="M35.4648,76.4764 L4.1888,45.2014" id="Stroke-24" stroke-dasharray="7.692,3.846"></path>
                        <polyline id="Stroke-25" points="2.829 43.8412 -2.15383267e-14 41.0122 2.829 38.1842"></polyline>
                        <path d="M5.5488,35.4647 L36.8238,4.1887" id="Stroke-26" stroke-dasharray="7.692,3.846"></path>
                        <polyline id="Stroke-27" points="38.184 2.829 41.013 -2.48912002e-13 43.841 2.829"></polyline>
                        <path d="M46.5605,5.5487 L77.8365,36.8237" id="Stroke-29" stroke-dasharray="7.692,3.846"></path>
                        <polyline id="Stroke-30" points="79.1962 38.184 82.0252 41.013 79.1962 43.841"></polyline>
                        <path d="M76.4765,46.5604 L45.2015,77.8364" id="Stroke-31" stroke-dasharray="7.692,3.846"></path>
                    </g>
                    <g id="Group-3" transform="translate(51.413800, 0.413800)" stroke="#F01109">
                        <polyline id="Stroke-12" points="43.8412 79.1962 41.0122 82.0252 38.1842 79.1962"></polyline>
                        <path d="M35.4648,76.4764 L4.1888,45.2014" id="Stroke-14" stroke-dasharray="7.692,3.846"></path>
                        <polyline id="Stroke-15" points="2.829 43.8412 -2.50910404e-14 41.0122 2.829 38.1842"></polyline>
                        <path d="M5.5488,35.4647 L36.8238,4.1887" id="Stroke-16" stroke-dasharray="7.692,3.846"></path>
                        <polyline id="Stroke-17" points="38.184 2.829 41.013 -2.48912002e-13 43.841 2.829"></polyline>
                        <path d="M46.5605,5.5487 L77.8365,36.8237" id="Stroke-19" stroke-dasharray="7.692,3.846"></path>
                        <polyline id="Stroke-20" points="79.1962 38.184 82.0252 41.013 79.1962 43.841"></polyline>
                        <path d="M76.4765,46.5604 L45.2015,77.8364" id="Stroke-21" stroke-dasharray="7.692,3.846"></path>
                    </g>
                </g>
            </g>
        </g>
    </g>
</svg>